
        <svg xmlns="http://www.w3.org/2000/svg" xmlns:xlink="http://www.w3.org/1999/xlink" version="1.1" width="3218.181818181818" height="774.9453222529212" viewBox="0 0 3218.181818181818 774.9453222529212">
			
			<g transform="scale(10.909090909090908) translate(10, 10)">
				<defs id="SvgjsDefs1085"/><g id="SvgjsG1086" featureKey="symbolFeature-0" transform="matrix(-0.6384254741059425,0,0,-0.6384254741059425,59.87519176006794,57.723508328624895)" fill="#fff"><path xmlns="http://www.w3.org/2000/svg" d="M72.5,59.6c0.8,1.7,1.6,3.4,2.3,5.2c1.5,3.5,2.7,7.1,3.3,10.9c0.4,2.3,0.5,4.6-0.2,6.9c-0.7,2.4-2.5,3.7-5,3.7  c-2.3,0-4.3-0.8-6.3-1.8c-1.7-0.9-3.4-2-5.1-3.1c-0.7-0.5-1.3-0.6-2.2-0.3c-2.7,1-5.7-1.7-5.3-4.5c0.2-1.2,0.1-1.4-1-2.2  c-0.1,0.2-0.3,0.4-0.4,0.6c-2.4,3.5-5,6.9-8,9.9c-1.9,1.8-3.9,3.6-6.3,4.7c-1.2,0.5-2.4,0.9-3.7,0.8c-2-0.1-3.3-1.3-4.1-2.9  c-0.9-1.7-1.2-3.6-1.4-5.5c-0.4-5.3,0.4-10.4,1.6-15.5c0.1-0.4,0.2-0.8,0.3-1.3c-0.2,0-0.4-0.1-0.6-0.1c-4.7-0.2-9.4-0.8-14-2.1  c-2.1-0.6-4.1-1.4-5.9-2.7c-0.5-0.4-1-0.8-1.4-1.2c-1.7-1.9-1.9-4-0.7-6.2c1.1-1.9,2.7-3.3,4.5-4.5c1.7-1.1,3.5-2.1,5.3-3.1  c0.4-0.2,0.5-0.4,0.6-0.9c0.1-1.7,0.9-2.9,2.5-3.6c1.6-0.7,3.1-0.5,4.4,0.6c0.5,0.4,0.9,0.5,1.5,0.3c0.3-0.2,0.7-0.3,1.1-0.3  c0.4-0.1,0.5-0.3,0.3-0.7c-1.6-3.2-3-6.5-4.1-10c-0.9-2.8-1.6-5.7-1.7-8.7c0-1.3,0.1-2.6,0.5-3.8c0.8-2.7,3.1-4.1,6-3.7  c3,0.4,5.6,1.8,8.2,3.3c3.7,2.3,6.9,5.1,10.1,8c0.2,0.2,0.4,0.4,0.6,0.6c0.9-1.2,1.7-2.4,2.6-3.6c2.3-3.1,4.8-6,7.7-8.5  c1.7-1.4,3.4-2.7,5.5-3.4c0.9-0.3,1.8-0.5,2.7-0.4c2.6,0.1,3.9,1.9,4.7,4.1c0.7,2,0.9,4,0.9,6.1c0,1.6-0.1,3.2-0.2,4.7  c0,0.2,0.2,0.5,0.4,0.6c1,0.6,1.6,1.5,1.9,2.6c0.6,2.2-0.8,4.5-3,5.1c-0.5,0.1-0.8,0.3-0.8,0.8c0,0.2-0.1,0.4-0.2,0.6  c-0.2,0.6-0.1,0.6,0.5,0.6c4,0.2,7.9,0.6,11.8,1.5c2.7,0.6,5.3,1.5,7.7,3c1.3,0.8,2.4,1.8,3,3.2c0.6,1.5,0.5,2.9-0.3,4.3  c-1,1.8-2.4,3.2-4,4.4c-3.2,2.4-6.8,4.1-10.6,5.5C76.5,58.2,74.5,58.9,72.5,59.6z M24.6,20.3c0.1,1.7,0.4,3.3,0.9,4.9  c1.4,5,3.6,9.7,6,14.4c0.2,0.4,0.5,0.4,0.9,0.3c2.8-0.7,5.7-1.3,8.5-2c0.3-0.1,0.6-0.3,0.7-0.6c1.5-2.7,3-5.4,4.6-8.1  c0.2-0.4,0.2-0.6-0.1-0.9c-2-1.9-3.9-3.8-5.9-5.6c-2.4-2.1-4.8-4-7.7-5.5c-1.4-0.7-2.7-1.3-4.3-1.4c-1.5-0.1-2.6,0.6-3.1,1.9  C24.8,18.6,24.7,19.4,24.6,20.3z M71.1,38.5c-0.3,0-0.8,0-1.2,0c-0.4,0-0.5,0.2-0.7,0.5c-1,3-1.9,6-2.9,9c-0.1,0.4-0.1,0.7,0.1,1.1  c1.4,2.4,2.9,4.8,4.3,7.2c0.3,0.5,0.5,0.6,1,0.4c3-1,6-1.9,9-3c3-1.1,5.9-2.5,8.5-4.4c1-0.7,1.8-1.5,2.5-2.5  c0.8-1.4,0.7-2.7-0.4-3.8c-0.2-0.2-0.5-0.4-0.7-0.6c-1.3-0.9-2.8-1.5-4.3-1.9C81.2,39,76.2,38.7,71.1,38.5z M31.3,81.7  c0,0.6,0.1,1.6,0.2,2.7c0.2,1.1,0.5,2.2,1.2,3.1c0.7,0.9,1.6,1.2,2.6,1.1c1.3-0.1,2.4-0.8,3.4-1.5c2.1-1.5,3.9-3.5,5.5-5.4  c2.4-2.9,4.5-6,6.6-9.2c0.2-0.3,0.2-0.5,0-0.7c-2-2.3-4.1-4.6-6.1-6.8c-0.2-0.2-0.5-0.3-0.7-0.3c-3.1,0.1-6.1,0.2-9.2,0.3  c-0.5,0-0.8,0.1-0.9,0.6c-0.4,1.6-0.8,3.2-1.2,4.8C31.9,74,31.4,77.6,31.3,81.7z M76.6,80.4c-0.1-2-0.4-3.7-0.9-5.4  c-1.4-5-3.6-9.7-6-14.2c-0.2-0.3-0.4-0.3-0.7-0.3c-2.9,0.7-5.8,1.3-8.7,2c-0.2,0.1-0.5,0.2-0.6,0.4c-1.6,2.8-3.1,5.6-4.7,8.3  c-0.2,0.3-0.1,0.5,0.1,0.7c0.3,0.3,0.6,0.6,0.9,0.9c0.2,0.3,0.5,0.3,0.8,0.2c0.5-0.2,1-0.3,1.5-0.4c2.2-0.2,5,2.2,4.1,5.2  c-0.2,0.6,0,1,0.4,1.3c1.3,0.9,2.5,1.8,3.7,2.7c1.7,1.2,3.6,2.1,5.6,2.6c2.2,0.5,3.8-0.5,4.2-2.7C76.6,81.2,76.6,80.7,76.6,80.4z   M29.9,61.9c0.5,0,1.1,0,1.6,0c0.3,0,0.5-0.1,0.5-0.4c1-3.1,2-6.2,3-9.3c0.1-0.2,0-0.5-0.1-0.7c-1.5-2.6-3-5.1-4.5-7.7  c-0.2-0.3-0.3-0.3-0.6-0.3c-0.6,0.2-1.2,0.3-1.8,0.5c-0.5,0.1-0.9,0.4-0.9,1c-0.1,1-0.6,1.8-1.3,2.4c-1.7,1.4-3.9,1.4-5.6-0.1  c-0.2-0.2-0.4-0.4-0.8-0.2c-2.5,1.1-4.9,2.2-7.1,3.8c-1.1,0.8-2,1.6-2.7,2.8c-0.8,1.4-0.6,2.7,0.5,3.8c0.5,0.5,1.1,0.9,1.6,1.2  c1.6,0.9,3.4,1.4,5.3,1.8C21.3,61.5,25.6,61.7,29.9,61.9z M64.1,35.4C64.1,35.5,64.1,35.5,64.1,35.4c0.9,0.1,1.7,0,2.5,0.1  c0.3,0,0.5-0.1,0.5-0.4c0.1-0.6,0.3-1.1,0.5-1.7c0.1-0.4,0-0.6-0.3-0.9c-2.5-2-1.7-6.2,1.5-7.1c0.4-0.1,0.5-0.3,0.6-0.7  c0.3-2.7,0.6-5.4,0.3-8.1c-0.1-1.3-0.4-2.5-1.1-3.6c-0.7-1-1.7-1.5-2.9-1.3c-1,0.2-1.9,0.6-2.7,1.2c-1.7,1.1-3.1,2.5-4.4,3.9  c-3.2,3.4-5.8,7.2-8.3,11.1c-0.2,0.3-0.1,0.5,0.1,0.8c1.9,2.1,3.7,4.1,5.5,6.2c0.5,0.6,1,0.9,1.8,0.8C59.9,35.6,62,35.5,64.1,35.4z   M46.1,61.3c1.3-0.2,2.6-0.3,3.8-0.4c2.5-0.3,5-0.7,7.5-1c0.4,0,0.6-0.2,0.7-0.5c1.5-3.3,2.9-6.6,4.4-10c0.1-0.2,0-0.6-0.1-0.8  c-0.5-0.8-1-1.6-1.6-2.3c-1.5-2-3-4.1-4.4-6.1c-0.5-0.8-1.2-1.1-2.2-1c-1.7,0.2-3.5,0.4-5.2,0.6c-1.6,0.2-3.1,0.5-4.7,0.7  c-0.4,0.1-0.7,0.1-0.9,0.5c-1.5,3.3-3,6.7-4.4,10c-0.1,0.2-0.1,0.6,0.1,0.7c2.2,3.1,4.5,6.1,6.7,9.2C45.7,61.2,46,61.3,46.1,61.3z   M37.3,55.1c-0.8,2.3-1.5,4.5-2.3,6.9c2.4-0.1,4.7-0.2,7.1-0.3C40.4,59.4,38.9,57.3,37.3,55.1z M64,45.3c0.8-2.3,1.5-4.5,2.3-6.8  c-2.4,0.1-4.7,0.2-7.1,0.3C60.8,41,62.4,43.1,64,45.3z M52.7,69.4c1.1-2.1,2.2-4.1,3.4-6.1c-2.7,0.4-5.2,0.7-7.8,1  C49.7,66,51.2,67.7,52.7,69.4z M48.5,31c-1.1,2.1-2.2,4.1-3.4,6.1c2.7-0.3,5.2-0.7,7.8-1C51.5,34.4,50.1,32.7,48.5,31z M39.5,41.4  c-0.1,0-0.2,0-0.3,0c-1.8,0.4-3.6,0.8-5.4,1.2c-0.4,0.1-0.5,0.2-0.3,0.6c0.9,1.5,1.9,3.1,2.8,4.6c0.1,0.1,0.2,0.2,0.3,0.3  C37.6,45.9,38.5,43.7,39.5,41.4z M64.7,52.2c-1,2.3-2,4.6-3,6.9c2.1-0.5,4.2-0.9,6.3-1.4C66.9,55.8,65.8,54,64.7,52.2z"/><path xmlns="http://www.w3.org/2000/svg" d="M43.7,50.2c0-3.8,3.1-6.9,6.9-6.9c3.9,0,7,3.1,7,7c0,3.9-3,6.9-6.9,6.9C46.4,57.2,43.7,53.9,43.7,50.2z"/></g><g id="SvgjsG1087" featureKey="nameFeature-0" transform="matrix(0.8122146494343708,0,0,0.8122146494343708,72.46589019306829,4.903196855840948)" fill="#fff"><path d="M5.84 40 l-2.72 0 l0 -28.8 l4.16 0 l9.44 25.4 l0.08 0 l9.28 -25.4 l4.12 0 l0 28.8 l-2.72 0 l0 -25.68 l-0.08 0 l-9.44 25.68 l-2.56 0 l-9.48 -25.68 l-0.08 0 l0 25.68 z M37.68 28.2 l13.52 0 c0 -4.04 -2.24 -7.32 -6.56 -7.32 c-4.24 0 -6.48 3.4 -6.96 7.32 z M53.760000000000005 30.2 l-16.08 0 c-0.04 4.48 2.36 8.2 6.96 8.2 c3.12 0 5.56 -1.72 6.28 -4.76 l2.68 0 c-1.2 3.92 -3.68 6.92 -8.96 6.92 c-6.64 0 -9.52 -4.72 -9.52 -10.84 c0 -6.04 3.6 -11 9.52 -11 c5.68 0 9.16 4.04 9.12 11.48 z M74.44 29.560000000000002 c0 -4.68 -2.64 -8.68 -7 -8.68 c-4.96 0 -7.28 4.2 -7.08 9.4 c0.04 5.2 3.04 8.12 7.08 8.12 c4.52 0 7 -3.84 7 -8.84 z M74.44 22.6 l0 -11.4 l2.4 0 l0 28.8 l-2.4 0 l0 -3.64 l-0.08 0 c-1.4 2.72 -4.56 4.2 -7.2 4.2 c-6.68 0 -9.36 -4.76 -9.36 -10.88 c0 -5.8 2.92 -10.96 9.24 -10.96 c2.92 0 5.88 1.36 7.4 3.88 z M85.64 40 l-2.4 0 l0 -20.72 l2.4 0 l0 20.72 z M85.76 14.760000000000002 l-2.64 0 l0 -3.56 l2.64 0 l0 3.56 z M108.88 25.8 l-2.44 0 c-0.84 -3.08 -2.96 -4.92 -6.16 -4.92 c-4.92 0 -6.96 4.48 -6.96 8.8 c0 4.36 2 8.72 6.96 8.72 c3.56 0 5.8 -2.12 6.36 -5.56 l2.56 0 c-0.84 4.6 -3.72 7.72 -8.92 7.72 c-6.6 0 -9.52 -4.76 -9.52 -10.88 c0 -5.76 3.32 -10.96 9.52 -10.96 c4.76 0 7.88 2.28 8.6 7.08 z M127.56 32.36 l0 -3.24 c-2.04 0.84 -4.12 1 -6.2 1.16 c-3.64 0.28 -5.84 1.6 -5.84 4.4 c0 2.52 2.2 3.72 4.48 3.72 c3.8 0 7.56 -1.84 7.56 -6.04 z M120.2 28.36 l3.32 -0.44 c0.88 -0.08 2.36 -0.32 3.16 -0.68 s0.88 -1.44 0.88 -2.16 c0 -2.44 -1.44 -4.2 -5.16 -4.2 c-3.32 0 -5.6 1.08 -6.04 4.68 l-2.44 0 c0.36 -4.88 4 -6.84 8.52 -6.84 c4.2 0 7.52 1.64 7.52 6.44 l0 11.28 c0 1.88 0.48 2.32 2.52 1.6 l0 1.88 c-0.36 0.12 -1.2 0.4 -1.88 0.4 c-0.4 0 -0.72 -0.04 -1.08 -0.12 c-1.6 -0.24 -1.88 -1.64 -1.92 -3.08 c-2 2.24 -4.72 3.44 -7.72 3.44 c-3.64 0 -6.92 -1.96 -6.92 -5.96 c0 -3.48 2.4 -5.6 7.24 -6.24 z M139 40 l-2.4 0 l0 -28.8 l2.4 0 l0 28.8 z M175.88000000000002 40 l-16.56 -25.12 l-0.08 0 l0 25.12 l-2.72 0 l0 -28.8 l3.08 0 l16.64 25.16 l0.08 0 l0 -25.16 l2.72 0 l0 28.8 l-3.16 0 z M193.36 40.56 c-5.28 -0.08 -9.6 -3.68 -9.6 -10.92 c0 -6.04 3.2 -10.92 9.6 -10.92 c6.48 0 9.6 4.84 9.6 10.92 c0 6.56 -3.8 10.92 -9.6 10.92 z M200.4 29.64 c-0.04 -4.88 -1.96 -8.76 -7.04 -8.76 c-5.04 0 -7.04 4.28 -7.04 8.76 c0 5.16 2.44 8.76 7.04 8.76 c5.04 0 7.04 -4.32 7.04 -8.76 z M223.36 29.560000000000002 c0 -4.68 -2.64 -8.68 -7 -8.68 c-4.96 0 -7.28 4.2 -7.08 9.4 c0.04 5.2 3.04 8.12 7.08 8.12 c4.52 0 7 -3.84 7 -8.84 z M223.36 22.6 l0 -11.4 l2.4 0 l0 28.8 l-2.4 0 l0 -3.64 l-0.08 0 c-1.4 2.72 -4.56 4.2 -7.2 4.2 c-6.68 0 -9.36 -4.76 -9.36 -10.88 c0 -5.8 2.92 -10.96 9.24 -10.96 c2.92 0 5.88 1.36 7.4 3.88 z M233.28000000000003 28.2 l13.52 0 c0 -4.04 -2.24 -7.32 -6.56 -7.32 c-4.24 0 -6.48 3.4 -6.96 7.32 z M249.36 30.2 l-16.08 0 c-0.04 4.48 2.36 8.2 6.96 8.2 c3.12 0 5.56 -1.72 6.28 -4.76 l2.68 0 c-1.2 3.92 -3.68 6.92 -8.96 6.92 c-6.64 0 -9.52 -4.72 -9.52 -10.84 c0 -6.04 3.6 -11 9.52 -11 c5.68 0 9.16 4.04 9.12 11.48 z"/></g>
			</g>
		</svg>
	